<svg width="67" height="67" viewBox="0 0 67 67" fill="none" xmlns="http://www.w3.org/2000/svg">
<circle cx="33.5" cy="33.5" r="33" stroke="white" stroke-opacity="0.35"/>
<path d="M24.9999 19.8571L17.2856 27.5714L24.9999 35.2857" stroke="white" stroke-opacity="0.35" stroke-linecap="round" stroke-linejoin="round"/>
<path d="M17.2856 27.5714H40.4285C43.1564 27.5714 45.7727 28.6551 47.7016 30.584C49.6305 32.513 50.7142 35.1292 50.7142 37.8571C50.7142 40.5851 49.6305 43.2013 47.7016 45.1302C45.7727 47.0592 43.1564 48.1429 40.4285 48.1429H27.5714" stroke="white" stroke-opacity="0.35" stroke-linecap="round" stroke-linejoin="round"/>
<path fill-rule="evenodd" clip-rule="evenodd" d="M2.41016 21C5.80979 12.5524 12.5526 5.80955 21.0003 2.40991V3.49085C13.1035 6.78397 6.78422 13.1032 3.4911 21H2.41016ZM2.41016 46C5.80979 54.4477 12.5526 61.1905 21.0003 64.5902V63.5092C13.1035 60.2161 6.78422 53.8968 3.4911 46H2.41016ZM63.5095 46C60.2163 53.8968 53.8971 60.2161 46.0003 63.5092V64.5902C54.448 61.1905 61.1908 54.4477 64.5904 46H63.5095ZM64.5904 21C61.1908 12.5524 54.448 5.80955 46.0003 2.40991V3.49085C53.8971 6.78397 60.2163 13.1032 63.5095 21H64.5904Z" fill="white"/>
</svg>
