<svg width="32" height="32" viewBox="0 0 32 32" fill="none" xmlns="http://www.w3.org/2000/svg">
<g opacity="0.95">
<circle opacity="0.85" cx="16" cy="16" r="16" fill="url(#paint0_linear_6_65)"/>
<path fill-rule="evenodd" clip-rule="evenodd" d="M8.44428 8.66664C8.44428 7.80753 9.14073 7.11108 9.99984 7.11108H21.9998C22.8589 7.11108 23.5554 7.80753 23.5554 8.66664V15.3333C23.5554 16.1924 22.8589 16.8889 21.9998 16.8889H9.99984C9.14073 16.8889 8.44428 16.1924 8.44428 15.3333V8.66664ZM9.99984 8.44442C9.87711 8.44442 9.77761 8.54391 9.77761 8.66664V15.3333C9.77761 15.456 9.87711 15.5555 9.99984 15.5555H21.9998C22.1226 15.5555 22.2221 15.456 22.2221 15.3333V8.66664C22.2221 8.54391 22.1226 8.44442 21.9998 8.44442H9.99984Z" fill="#646464"/>
<path fill-rule="evenodd" clip-rule="evenodd" d="M6.6665 19.3333C6.6665 18.4742 7.36295 17.7778 8.22206 17.7778H23.7776C24.6367 17.7778 25.3332 18.4742 25.3332 19.3333V22.8889C25.3332 23.748 24.6367 24.4444 23.7776 24.4444H8.22206C7.36295 24.4444 6.6665 23.748 6.6665 22.8889V19.3333ZM8.22206 19.1111C8.09933 19.1111 7.99984 19.2106 7.99984 19.3333V22.8889C7.99984 23.0116 8.09933 23.1111 8.22206 23.1111H23.7776C23.9003 23.1111 23.9998 23.0116 23.9998 22.8889V19.3333C23.9998 19.2106 23.9003 19.1111 23.7776 19.1111H8.22206Z" fill="#646464"/>
<path fill-rule="evenodd" clip-rule="evenodd" d="M14.2221 21.1111C14.2221 20.7429 14.5205 20.4444 14.8887 20.4444H20.6665C21.0347 20.4444 21.3332 20.7429 21.3332 21.1111C21.3332 21.4793 21.0347 21.7778 20.6665 21.7778H14.8887C14.5205 21.7778 14.2221 21.4793 14.2221 21.1111Z" fill="#646464"/>
<path fill-rule="evenodd" clip-rule="evenodd" d="M10.6665 21.1111C10.6665 20.7429 10.965 20.4444 11.3332 20.4444H11.7776C12.1458 20.4444 12.4443 20.7429 12.4443 21.1111C12.4443 21.4793 12.1458 21.7778 11.7776 21.7778H11.3332C10.965 21.7778 10.6665 21.4793 10.6665 21.1111Z" fill="#646464"/>
</g>
<defs>
<linearGradient id="paint0_linear_6_65" x1="30.0177" y1="3.41333" x2="0.0139762" y2="-0.321019" gradientUnits="userSpaceOnUse">
<stop stop-color="#313545"/>
<stop offset="1" stop-color="#121118"/>
</linearGradient>
</defs>
</svg>
